<svg xmlns="http://www.w3.org/2000/svg" width="960" height="480" viewBox="0 0 960 480" role="img" aria-labelledby="title desc"><title id="title">Check source and final PDF</title><desc id="desc">Editable source: Review facts + layout; Export PDF: Open the new file; Delivery copy: Details must match</desc><rect x="0" y="0" width="960" height="480" rx="0" fill="#f8fafc" stroke="none"/><rect x="0" y="0" width="960" height="82" rx="0" fill="#0f172a" stroke="none"/><text x="36" y="51" fill="#fff" font-family="Arial, sans-serif" font-size="30" font-weight="700">Check source and final PDF</text><rect x="807" y="24" width="115" height="33" rx="17" fill="#2563eb" stroke="none"/><text x="831" y="47" fill="#fff" font-family="Arial, sans-serif" font-size="16" font-weight="700">WORD</text><rect x="35" y="105" width="280" height="316" rx="14" fill="#fff" stroke="#dbe3ea"/><rect x="35" y="105" width="280" height="48" rx="14" fill="#f1f5f9" stroke="none"/><rect x="35" y="139" width="280" height="14" rx="0" fill="#f1f5f9" stroke="none"/><text x="53" y="137" fill="#172033" font-family="Arial, sans-serif" font-size="19" font-weight="700">Editable source</text><rect x="75" y="177" width="200" height="192" rx="4" fill="#fff" stroke="#cbd5e1"/><text x="96" y="214" fill="#172033" font-family="Arial, sans-serif" font-size="16" font-weight="500">Learning Day</text><text x="96" y="245" fill="#172033" font-family="Arial, sans-serif" font-size="16" font-weight="500">12 Oct 2026</text><rect x="88" y="255" width="174" height="29" rx="3" fill="#ecfdf5" stroke="none"/><text x="96" y="276" fill="#0f766e" font-family="Arial, sans-serif" font-size="16" font-weight="700">10 am</text><text x="96" y="307" fill="#172033" font-family="Arial, sans-serif" font-size="16" font-weight="500">Training Hall</text><text x="53" y="397" fill="#526276" font-family="Arial, sans-serif" font-size="15" font-weight="500">Review facts + layout</text><rect x="340" y="105" width="280" height="316" rx="14" fill="#fff" stroke="#dbe3ea"/><rect x="340" y="105" width="280" height="48" rx="14" fill="#f1f5f9" stroke="none"/><rect x="340" y="139" width="280" height="14" rx="0" fill="#f1f5f9" stroke="none"/><text x="358" y="137" fill="#172033" font-family="Arial, sans-serif" font-size="19" font-weight="700">Export PDF</text><rect x="371" y="204" width="220" height="41" rx="8" fill="#eff6ff" stroke="none"/><text x="383" y="231" fill="#1d4ed8" font-family="Arial, sans-serif" font-size="17" font-weight="700">Export updated PDF</text><path d="M462 284 L498 284" stroke="#0f766e" stroke-width="4" fill="none"/><path d="M489 276l12 8-12 8" fill="none" stroke="#0f766e" stroke-width="4" stroke-linecap="round" stroke-linejoin="round"/><text x="358" y="397" fill="#526276" font-family="Arial, sans-serif" font-size="15" font-weight="500">Open the new file</text><rect x="645" y="105" width="280" height="316" rx="14" fill="#fff" stroke="#dbe3ea"/><rect x="645" y="105" width="280" height="48" rx="14" fill="#f1f5f9" stroke="none"/><rect x="645" y="139" width="280" height="14" rx="0" fill="#f1f5f9" stroke="none"/><text x="663" y="137" fill="#172033" font-family="Arial, sans-serif" font-size="19" font-weight="700">Delivery copy</text><rect x="685" y="177" width="200" height="192" rx="4" fill="#fff" stroke="#cbd5e1"/><text x="706" y="214" fill="#172033" font-family="Arial, sans-serif" font-size="16" font-weight="500">Learning Day</text><text x="706" y="245" fill="#172033" font-family="Arial, sans-serif" font-size="16" font-weight="500">12 Oct 2026</text><rect x="698" y="255" width="174" height="29" rx="3" fill="#ecfdf5" stroke="none"/><text x="706" y="276" fill="#0f766e" font-family="Arial, sans-serif" font-size="16" font-weight="700">10 am</text><text x="706" y="307" fill="#172033" font-family="Arial, sans-serif" font-size="16" font-weight="500">Training Hall</text><text x="663" y="397" fill="#526276" font-family="Arial, sans-serif" font-size="15" font-weight="500">Details must match</text><path d="M321 260h15m-7-7 7 7-7 7M626 260h15m-7-7 7 7-7 7" fill="none" stroke="#0f766e" stroke-width="3" stroke-linecap="round" stroke-linejoin="round"/><text x="37" y="456" fill="#526276" font-family="Arial, sans-serif" font-size="16" font-weight="500">Try the steps, then change one input and check the result.</text></svg>