<svg xmlns="http://www.w3.org/2000/svg" width="350" height="1135" viewBox="0 0 350 1135" role="img" aria-labelledby="title desc"><title id="title">Check the three totals</title><desc id="desc">Base amounts: SUM = 1,410; Allowances: SUM = 141; Planned total: Verify each part</desc><rect x="0" y="0" width="350" height="1135" rx="0" fill="#f8fafc" stroke="none"/><rect x="0" y="0" width="350" height="82" rx="0" fill="#0f172a" stroke="none"/><text x="25" y="34" fill="#fff" font-family="Arial, sans-serif" font-size="22" font-weight="700">Check the three totals</text><g transform="translate(0 0)"><rect x="35" y="105" width="280" height="316" rx="14" fill="#fff" stroke="#dbe3ea"/><rect x="35" y="105" width="280" height="48" rx="14" fill="#f1f5f9" stroke="none"/><rect x="35" y="139" width="280" height="14" rx="0" fill="#f1f5f9" stroke="none"/><text x="53" y="137" fill="#172033" font-family="Arial, sans-serif" font-size="19" font-weight="700">Base amounts</text><rect x="65" y="181" width="218" height="155" rx="3" fill="#fff" stroke="#b9c9d4"/><rect x="65" y="181" width="218" height="31" rx="3" fill="#e9f4f2" stroke="none"/><rect x="66" y="213" width="216" height="29" rx="0" fill="#ecfdf5" stroke="none"/><path d="M191 181 L191 336" stroke="#cbd5e1" stroke-width="1" fill="none"/><path d="M65 212 L283 212" stroke="#cbd5e1" stroke-width="1" fill="none"/><path d="M65 243 L283 243" stroke="#cbd5e1" stroke-width="1" fill="none"/><path d="M65 274 L283 274" stroke="#cbd5e1" stroke-width="1" fill="none"/><path d="M65 305 L283 305" stroke="#cbd5e1" stroke-width="1" fill="none"/><text x="71" y="202" fill="#172033" font-family="Arial, sans-serif" font-size="13" font-weight="700">Item</text><text x="197" y="202" fill="#172033" font-family="Arial, sans-serif" font-size="13" font-weight="700">Amount</text><text x="71" y="233" fill="#0f766e" font-family="Arial, sans-serif" font-size="13" font-weight="700">Notebooks</text><text x="197" y="233" fill="#0f766e" font-family="Arial, sans-serif" font-size="13" font-weight="700">700</text><text x="71" y="264" fill="#172033" font-family="Arial, sans-serif" font-size="13" font-weight="500">Pens</text><text x="197" y="264" fill="#172033" font-family="Arial, sans-serif" font-size="13" font-weight="500">300</text><text x="71" y="295" fill="#172033" font-family="Arial, sans-serif" font-size="13" font-weight="500">Folders</text><text x="197" y="295" fill="#172033" font-family="Arial, sans-serif" font-size="13" font-weight="500">250</text><text x="71" y="326" fill="#172033" font-family="Arial, sans-serif" font-size="13" font-weight="500">Markers</text><text x="197" y="326" fill="#172033" font-family="Arial, sans-serif" font-size="13" font-weight="500">160</text><text x="53" y="397" fill="#526276" font-family="Arial, sans-serif" font-size="15" font-weight="500">SUM = 1,410</text></g><g transform="translate(-305 328)"><rect x="340" y="105" width="280" height="316" rx="14" fill="#fff" stroke="#dbe3ea"/><rect x="340" y="105" width="280" height="48" rx="14" fill="#f1f5f9" stroke="none"/><rect x="340" y="139" width="280" height="14" rx="0" fill="#f1f5f9" stroke="none"/><text x="358" y="137" fill="#172033" font-family="Arial, sans-serif" font-size="19" font-weight="700">Allowances</text><rect x="370" y="181" width="218" height="155" rx="3" fill="#fff" stroke="#b9c9d4"/><rect x="370" y="181" width="218" height="31" rx="3" fill="#e9f4f2" stroke="none"/><rect x="371" y="213" width="216" height="29" rx="0" fill="#ecfdf5" stroke="none"/><path d="M496 181 L496 336" stroke="#cbd5e1" stroke-width="1" fill="none"/><path d="M370 212 L588 212" stroke="#cbd5e1" stroke-width="1" fill="none"/><path d="M370 243 L588 243" stroke="#cbd5e1" stroke-width="1" fill="none"/><path d="M370 274 L588 274" stroke="#cbd5e1" stroke-width="1" fill="none"/><path d="M370 305 L588 305" stroke="#cbd5e1" stroke-width="1" fill="none"/><text x="376" y="202" fill="#172033" font-family="Arial, sans-serif" font-size="13" font-weight="700">Item</text><text x="502" y="202" fill="#172033" font-family="Arial, sans-serif" font-size="13" font-weight="700">10%</text><text x="376" y="233" fill="#0f766e" font-family="Arial, sans-serif" font-size="13" font-weight="700">Notebooks</text><text x="502" y="233" fill="#0f766e" font-family="Arial, sans-serif" font-size="13" font-weight="700">70</text><text x="376" y="264" fill="#172033" font-family="Arial, sans-serif" font-size="13" font-weight="500">Pens</text><text x="502" y="264" fill="#172033" font-family="Arial, sans-serif" font-size="13" font-weight="500">30</text><text x="376" y="295" fill="#172033" font-family="Arial, sans-serif" font-size="13" font-weight="500">Folders</text><text x="502" y="295" fill="#172033" font-family="Arial, sans-serif" font-size="13" font-weight="500">25</text><text x="376" y="326" fill="#172033" font-family="Arial, sans-serif" font-size="13" font-weight="500">Markers</text><text x="502" y="326" fill="#172033" font-family="Arial, sans-serif" font-size="13" font-weight="500">16</text><text x="358" y="397" fill="#526276" font-family="Arial, sans-serif" font-size="15" font-weight="500">SUM = 141</text></g><g transform="translate(-610 656)"><rect x="645" y="105" width="280" height="316" rx="14" fill="#fff" stroke="#dbe3ea"/><rect x="645" y="105" width="280" height="48" rx="14" fill="#f1f5f9" stroke="none"/><rect x="645" y="139" width="280" height="14" rx="0" fill="#f1f5f9" stroke="none"/><text x="663" y="137" fill="#172033" font-family="Arial, sans-serif" font-size="19" font-weight="700">Planned total</text><rect x="675" y="198" width="220" height="41" rx="8" fill="#ecfdf5" stroke="none"/><text x="687" y="225" fill="#0f766e" font-family="Arial, sans-serif" font-size="17" font-weight="700">1,410 + 141</text><rect x="675" y="253" width="220" height="41" rx="8" fill="#eff6ff" stroke="none"/><text x="687" y="280" fill="#1d4ed8" font-family="Arial, sans-serif" font-size="17" font-weight="700">= 1,551</text><text x="663" y="397" fill="#526276" font-family="Arial, sans-serif" font-size="15" font-weight="500">Verify each part</text></g><text x="35" y="1110" fill="#526276" font-family="Arial, sans-serif" font-size="15" font-weight="500">Try it. Change one input. Check again.</text></svg>