<svg xmlns="http://www.w3.org/2000/svg" width="960" height="455" viewBox="0 0 960 455" role="img" aria-labelledby="title"><title id="title">Check the cart maths</title><rect x="0" y="0" width="960" height="455" rx="0" fill="#f7faf6" stroke="none"/><rect x="0" y="0" width="960" height="82" rx="0" fill="#123c2b" stroke="none"/><text x="36" y="51" font-family="Arial, sans-serif" font-size="30" font-weight="700" fill="#fff">Check the cart maths</text><rect x="35" y="104" width="280" height="308" rx="14" fill="#fff" stroke="#d7e5d9"/><rect x="35" y="104" width="280" height="47" rx="14" fill="#eff5ef" stroke="none"/><rect x="35" y="136" width="280" height="15" rx="0" fill="#eff5ef" stroke="none"/><text x="53" y="135" font-family="Arial, sans-serif" font-size="18" font-weight="700" fill="#17372b">Add items</text><rect x="65" y="192" width="219" height="93" rx="5" fill="#fff" stroke="#b7ccba"/><rect x="65" y="192" width="219" height="31" rx="8" fill="#e5f4e8" stroke="none"/><text x="73" y="213" font-family="Arial, sans-serif" font-size="14" font-weight="700" fill="#17372b">Item</text><text x="181" y="213" font-family="Arial, sans-serif" font-size="14" font-weight="700" fill="#17372b">Qty</text><path d="M65 223L284 223" stroke="#bfd2c2" stroke-width="2" fill="none"/><text x="73" y="244" font-family="Arial, sans-serif" font-size="14" font-weight="500" fill="#17372b">Rice · ₹60</text><text x="181" y="244" font-family="Arial, sans-serif" font-size="14" font-weight="500" fill="#17372b">2</text><path d="M65 254L284 254" stroke="#bfd2c2" stroke-width="2" fill="none"/><text x="73" y="275" font-family="Arial, sans-serif" font-size="14" font-weight="500" fill="#17372b">Dal · ₹110</text><text x="181" y="275" font-family="Arial, sans-serif" font-size="14" font-weight="500" fill="#17372b">1</text><text x="53" y="389" font-family="Arial, sans-serif" font-size="14" font-weight="500" fill="#587267">Available items only</text><rect x="340" y="104" width="280" height="308" rx="14" fill="#fff" stroke="#d7e5d9"/><rect x="340" y="104" width="280" height="47" rx="14" fill="#eff5ef" stroke="none"/><rect x="340" y="136" width="280" height="15" rx="0" fill="#eff5ef" stroke="none"/><text x="358" y="135" font-family="Arial, sans-serif" font-size="18" font-weight="700" fill="#17372b">Calculate</text><rect x="370" y="190" width="215" height="35" rx="7" fill="#e5f4e8" stroke="none"/><text x="381" y="213" font-family="Arial, sans-serif" font-size="15" font-weight="700" fill="#146c4a">2 × ₹60 = ₹120</text><rect x="370" y="243" width="215" height="35" rx="7" fill="#e7f0fb" stroke="none"/><text x="381" y="266" font-family="Arial, sans-serif" font-size="15" font-weight="700" fill="#245992">1 × ₹110 = ₹110</text><rect x="370" y="296" width="215" height="35" rx="7" fill="#fff1d9" stroke="none"/><text x="381" y="319" font-family="Arial, sans-serif" font-size="15" font-weight="700" fill="#9b5f11">Total = ₹230</text><text x="358" y="389" font-family="Arial, sans-serif" font-size="14" font-weight="500" fill="#587267">Change one quantity</text><rect x="645" y="104" width="280" height="308" rx="14" fill="#fff" stroke="#d7e5d9"/><rect x="645" y="104" width="280" height="47" rx="14" fill="#eff5ef" stroke="none"/><rect x="645" y="136" width="280" height="15" rx="0" fill="#eff5ef" stroke="none"/><text x="663" y="135" font-family="Arial, sans-serif" font-size="18" font-weight="700" fill="#17372b">Clear boundary</text><rect x="675" y="199" width="215" height="35" rx="7" fill="#e5f4e8" stroke="none"/><text x="686" y="222" font-family="Arial, sans-serif" font-size="15" font-weight="700" fill="#146c4a">Practice cart</text><rect x="675" y="253" width="215" height="35" rx="7" fill="#fff1d9" stroke="none"/><text x="686" y="276" font-family="Arial, sans-serif" font-size="15" font-weight="700" fill="#9b5f11">No order placed</text><text x="663" y="389" font-family="Arial, sans-serif" font-size="14" font-weight="500" fill="#587267">No payment or address</text><path d="M319 258h20m-8-8 8 8-8 8M624 258h20m-8-8 8 8-8 8" stroke="#146c4a" stroke-width="3" fill="none" stroke-linecap="round" stroke-linejoin="round"/><text x="36" y="439" font-family="Arial, sans-serif" font-size="16" font-weight="500" fill="#587267">Prompt → preview → test → improve</text></svg>