<svg xmlns="http://www.w3.org/2000/svg" width="960" height="455" viewBox="0 0 960 455" role="img" aria-labelledby="title"><title id="title">Improve one thing a day</title><rect x="0" y="0" width="960" height="455" rx="0" fill="#f7faf6" stroke="none"/><rect x="0" y="0" width="960" height="82" rx="0" fill="#123c2b" stroke="none"/><text x="36" y="51" font-family="Arial, sans-serif" font-size="30" font-weight="700" fill="#fff">Improve one thing a day</text><rect x="35" y="104" width="280" height="308" rx="14" fill="#fff" stroke="#d7e5d9"/><rect x="35" y="104" width="280" height="47" rx="14" fill="#eff5ef" stroke="none"/><rect x="35" y="136" width="280" height="15" rx="0" fill="#eff5ef" stroke="none"/><text x="53" y="135" font-family="Arial, sans-serif" font-size="18" font-weight="700" fill="#17372b">Feedback</text><rect x="65" y="194" width="215" height="35" rx="7" fill="#fff1d9" stroke="none"/><text x="76" y="217" font-family="Arial, sans-serif" font-size="15" font-weight="700" fill="#9b5f11">“Filter is confusing”</text><text x="82" y="288" font-family="Arial, sans-serif" font-size="16" font-weight="500" fill="#587267">Write the real problem</text><text x="53" y="389" font-family="Arial, sans-serif" font-size="14" font-weight="500" fill="#587267">One need at a time</text><rect x="340" y="104" width="280" height="308" rx="14" fill="#fff" stroke="#d7e5d9"/><rect x="340" y="104" width="280" height="47" rx="14" fill="#eff5ef" stroke="none"/><rect x="340" y="136" width="280" height="15" rx="0" fill="#eff5ef" stroke="none"/><text x="358" y="135" font-family="Arial, sans-serif" font-size="18" font-weight="700" fill="#17372b">Small AI prompt</text><rect x="370" y="194" width="215" height="35" rx="7" fill="#e5f4e8" stroke="none"/><text x="381" y="217" font-family="Arial, sans-serif" font-size="15" font-weight="700" fill="#146c4a">Change only filter</text><rect x="370" y="249" width="215" height="35" rx="7" fill="#e7f0fb" stroke="none"/><text x="381" y="272" font-family="Arial, sans-serif" font-size="15" font-weight="700" fill="#245992">Show changed files</text><text x="358" y="389" font-family="Arial, sans-serif" font-size="14" font-weight="500" fill="#587267">Inspect the proposal</text><rect x="645" y="104" width="280" height="308" rx="14" fill="#fff" stroke="#d7e5d9"/><rect x="645" y="104" width="280" height="47" rx="14" fill="#eff5ef" stroke="none"/><rect x="645" y="136" width="280" height="15" rx="0" fill="#eff5ef" stroke="none"/><text x="663" y="135" font-family="Arial, sans-serif" font-size="18" font-weight="700" fill="#17372b">Test + log</text><rect x="675" y="188" width="215" height="35" rx="7" fill="#e5f4e8" stroke="none"/><text x="686" y="211" font-family="Arial, sans-serif" font-size="15" font-weight="700" fill="#146c4a">Phone + keyboard</text><rect x="675" y="238" width="215" height="35" rx="7" fill="#e7f0fb" stroke="none"/><text x="686" y="261" font-family="Arial, sans-serif" font-size="15" font-weight="700" fill="#245992">Search + cart</text><rect x="675" y="288" width="215" height="35" rx="7" fill="#fff1d9" stroke="none"/><text x="686" y="311" font-family="Arial, sans-serif" font-size="15" font-weight="700" fill="#9b5f11">changes.md</text><text x="663" y="389" font-family="Arial, sans-serif" font-size="14" font-weight="500" fill="#587267">Keep or revise</text><path d="M319 258h20m-8-8 8 8-8 8M624 258h20m-8-8 8 8-8 8" stroke="#146c4a" stroke-width="3" fill="none" stroke-linecap="round" stroke-linejoin="round"/><text x="36" y="439" font-family="Arial, sans-serif" font-size="16" font-weight="500" fill="#587267">Prompt → preview → test → improve</text></svg>